<?xml version="1.0" encoding="utf-8"?>
<!-- Generator: Adobe Illustrator 26.0.3, SVG Export Plug-In . SVG Version: 6.00 Build 0)  -->
<svg version="1.1" id="Layer_1" xmlns="http://www.w3.org/2000/svg" xmlns:xlink="http://www.w3.org/1999/xlink" x="0px" y="0px"
	 viewBox="0 0 1300 726" style="enable-background:new 0 0 1300 726;" xml:space="preserve">
<style type="text/css">
	.st0{clip-path:url(#SVGID_00000173160557025828048890000010715714297464342711_);}
	.st1{fill:none;stroke:#EE7025;stroke-width:2.1721;stroke-linecap:round;stroke-linejoin:round;stroke-dasharray:3.26,3.26;}
	.st2{fill:#EE7025;}
	.st3{fill:#0F2233;}
	.st4{fill:none;stroke:#2F73B0;stroke-width:1.53;stroke-linecap:round;stroke-linejoin:round;stroke-miterlimit:10;}
	.st5{fill:#FFFFFF;stroke:#2F73B0;stroke-width:2.5601;stroke-linecap:round;stroke-linejoin:round;stroke-miterlimit:10;}
	.st6{fill:#2F73B0;}
	.st7{fill:none;stroke:#2F73B0;stroke-width:2.7;stroke-linecap:round;stroke-linejoin:round;stroke-miterlimit:10;}
	.st8{fill:#FFFFFF;}
	.st9{fill:none;stroke:#2F73B0;stroke-width:1.8662;stroke-linecap:round;stroke-linejoin:round;stroke-miterlimit:10;}
	.st10{fill:#FFFFFF;stroke:#2F73B0;stroke-width:1.1055;stroke-linecap:round;stroke-linejoin:round;stroke-miterlimit:10;}
	.st11{fill:none;stroke:#2F73B0;stroke-width:1.725;stroke-linecap:round;stroke-linejoin:round;stroke-miterlimit:10;}
	.st12{fill:none;stroke:#2F73B0;stroke-width:2.7;stroke-miterlimit:10;}
	.st13{fill:none;stroke:#2F73B0;stroke-width:0.8;stroke-linecap:round;stroke-linejoin:round;stroke-miterlimit:10;}
	.st14{fill:none;stroke:#2F73B0;stroke-width:1.7;stroke-linecap:round;stroke-linejoin:round;stroke-miterlimit:10;}
	.st15{fill:none;stroke:#2F73B0;stroke-width:1.9682;stroke-miterlimit:10;}
	.st16{fill:#FFFFFF;stroke:#2F73B0;stroke-width:1.9682;stroke-miterlimit:10;}
	.st17{fill:#FFFFFF;stroke:#2F73B0;stroke-width:0.6543;stroke-miterlimit:10;}
	.st18{fill:#FFFFFF;stroke:#2F73B0;stroke-width:2.7;stroke-linecap:round;stroke-linejoin:round;stroke-miterlimit:10;}
	.st19{fill:none;stroke:#2F73B0;stroke-width:0.9349;stroke-linecap:round;stroke-linejoin:round;stroke-miterlimit:10;}
	.st20{fill:#FFFFFF;stroke:#2F73B0;stroke-width:2.3105;stroke-linecap:round;stroke-linejoin:round;stroke-miterlimit:10;}
	.st21{fill:#FFFFFF;stroke:#2F73B0;stroke-width:2.0794;stroke-linecap:round;stroke-linejoin:round;stroke-miterlimit:10;}
	.st22{fill:#FFFFFF;stroke:#2F73B0;stroke-width:0.8318;stroke-linecap:round;stroke-linejoin:round;stroke-miterlimit:10;}
	.st23{fill:none;stroke:#2F73B0;stroke-width:0.6859;stroke-linecap:round;stroke-miterlimit:10;}
	.st24{fill:#FFFFFF;stroke:#2F73B0;stroke-width:2;stroke-linecap:round;stroke-linejoin:round;stroke-miterlimit:10;}
	.st25{fill:#FFFFFF;stroke:#2F73B0;stroke-linecap:round;stroke-linejoin:round;stroke-miterlimit:10;}
	.st26{fill:#FFFFFF;stroke:#2F73B0;stroke-width:0.8852;stroke-linecap:round;stroke-linejoin:round;stroke-miterlimit:10;}
	.st27{fill:#2F73B0;stroke:#2F73B0;stroke-width:0.8852;stroke-linecap:round;stroke-linejoin:round;stroke-miterlimit:10;}
	.st28{fill:#D9EAF4;stroke:#FFFFFF;stroke-width:7;stroke-miterlimit:10;}
	.st29{fill:#FFFFFF;stroke:#2F73B0;stroke-width:2.916;stroke-linecap:round;stroke-linejoin:round;stroke-miterlimit:10;}
	.st30{fill:none;stroke:#2F73B0;stroke-width:1.62;stroke-linecap:round;stroke-linejoin:round;stroke-miterlimit:10;}
	.st31{fill:none;stroke:#2F73B0;stroke-width:2;stroke-linecap:round;stroke-linejoin:round;}
	.st32{fill-rule:evenodd;clip-rule:evenodd;fill:#2F73B0;}
</style>
<g>
	<defs>
		<rect id="SVGID_1_" width="1300" height="725.6"/>
	</defs>
	<clipPath id="SVGID_00000072993476704155531900000013335337071183088562_">
		<use xlink:href="#SVGID_1_"  style="overflow:visible;"/>
	</clipPath>
	<g style="clip-path:url(#SVGID_00000072993476704155531900000013335337071183088562_);">
		<path class="st1" d="M464.1,274.2l47,36.6h280.7L841,270"/>
		<path class="st2" d="M460.8,278.8c-2.5-1.9-2.9-5.5-1-8c1.9-2.5,5.5-2.9,8-1c2.5,1.9,2.9,5.5,1,8
			C466.9,280.3,463.3,280.8,460.8,278.8z"/>
		<path class="st2" d="M844.5,274.6c2.4-2,2.8-5.6,0.8-8s-5.6-2.8-8-0.8c-2.4,2-2.8,5.6-0.8,8C838.4,276.3,842,276.6,844.5,274.6z"
			/>
		<path class="st1" d="M464,459.4l47.1-39.6h280.7l49,35.6"/>
		<path class="st2" d="M467.9,463.6c-2.4,2-6,1.7-8.1-0.7c-2.1-2.4-1.7-6,0.7-8.1c2.4-2,6-1.7,8.1,0.7
			C470.6,457.9,470.3,461.6,467.9,463.6z"/>
		<path class="st2" d="M837.2,459.9c2.6,1.9,6.1,1.3,8-1.3c1.9-2.6,1.3-6.1-1.3-8c-2.6-1.9-6.1-1.3-8,1.3
			C834.1,454.5,834.7,458,837.2,459.9z"/>
		<path class="st3" d="M246.4,371.9h-2.6l-2-9.5l-2,9.5h-2.6l-2.6-11.8h2.3l1.7,9.6l2-9.6h2.5l2,9.6l1.7-9.6h2.3L246.4,371.9z"/>
		<path class="st3" d="M255.9,366.2v2h-4.3v0.7c0,1,0.4,1.3,1.5,1.3c0.7,0,1.7-0.1,2.4-0.3l0.1,1.8c-0.9,0.2-2,0.3-2.6,0.3
			c-2.5,0-3.4-1-3.4-3.4v-2.5c0-2.1,1-3.3,3.2-3.3C254.7,362.9,255.9,364,255.9,366.2z M251.6,365.9v0.7h2.2V366
			c0-0.9-0.4-1.3-1.1-1.3S251.6,365.1,251.6,365.9z"/>
		<path class="st3" d="M263.4,366v5.9h-2v-1.2c-0.6,0.9-1.4,1.4-2.2,1.4c-1.4,0-2.2-1-2.2-2.8v-0.5c0-1.6,1-2.6,2.8-2.6
			c0.4,0,1,0.1,1.5,0.2v-0.7c0-0.8-0.3-1-1.2-1c-0.6,0-1.6,0.2-2.4,0.3v-1.8c0.9-0.2,2-0.3,2.6-0.3
			C262.5,362.9,263.4,363.7,263.4,366z M259.1,369v0.1c0,0.7,0.3,1.1,0.8,1.1s1-0.4,1.4-1.2v-1.2c-0.4-0.1-0.8-0.1-1-0.1
			C259.5,367.8,259.1,368.2,259.1,369z"/>
		<path class="st3" d="M269.8,362.9v2.3c-0.2,0-0.4,0-0.6,0c-0.8,0-1.5,0.4-1.9,1.2v5.6h-2.1v-8.8h1.9v1.3c0.6-0.9,1.4-1.5,2.3-1.5
			C269.6,362.9,269.7,362.9,269.8,362.9z"/>
		<path class="st3" d="M276.7,366v5.9h-2v-1.2c-0.6,0.9-1.4,1.4-2.2,1.4c-1.4,0-2.2-1-2.2-2.8v-0.5c0-1.6,1-2.6,2.8-2.6
			c0.4,0,1,0.1,1.5,0.2v-0.7c0-0.8-0.3-1-1.2-1c-0.6,0-1.6,0.2-2.4,0.3v-1.8c0.9-0.2,2-0.3,2.6-0.3
			C275.9,362.9,276.7,363.7,276.7,366z M272.5,369v0.1c0,0.7,0.3,1.1,0.8,1.1s1-0.4,1.4-1.2v-1.2c-0.4-0.1-0.8-0.1-1-0.1
			C272.9,367.8,272.5,368.2,272.5,369z"/>
		<path class="st3" d="M280.6,364.1c0.5-0.7,1.3-1.2,2.1-1.2c1.4,0,2.2,0.9,2.2,3.1v2.7c0,2.2-1,3.4-3.3,3.4c-2.2,0-3.2-1.1-3.2-3.4
			v-9.1h2.1v4.5H280.6z M280.6,365.9v3.1c0,0.9,0.4,1.3,1.1,1.3c0.8,0,1.2-0.5,1.2-1.4v-2.7c0-1.1-0.3-1.4-0.8-1.4
			C281.5,364.8,281,365.2,280.6,365.9z"/>
		<path class="st3" d="M288.8,371.9h-2.1v-12.3h2.1V371.9z"/>
		<path class="st3" d="M296.9,366.2v2h-4.3v0.7c0,1,0.4,1.3,1.5,1.3c0.7,0,1.7-0.1,2.4-0.3l0.1,1.8c-0.9,0.2-2,0.3-2.6,0.3
			c-2.5,0-3.4-1-3.4-3.4v-2.5c0-2.1,1-3.3,3.2-3.3C295.7,362.9,296.9,364,296.9,366.2z M292.6,365.9v0.7h2.2V366
			c0-0.9-0.4-1.3-1.1-1.3C293,364.7,292.6,365.1,292.6,365.9z"/>
		<path class="st3" d="M303.2,363.1v1.8c-0.8-0.2-1.4-0.3-1.9-0.3c-0.9,0-1.2,0.3-1.2,0.7v0.1c0,0.3,0.1,0.4,0.5,0.6l1.7,0.7
			c1.1,0.5,1.6,1.2,1.6,2.2v0.4c0,1.7-0.9,2.6-3.2,2.6c-0.7,0-1.5-0.1-2.5-0.4l0.1-1.9c0.8,0.2,1.7,0.4,2.4,0.4
			c0.9,0,1.1-0.2,1.1-0.7v-0.1c0-0.4-0.1-0.6-0.5-0.8l-1.6-0.7c-1.2-0.5-1.7-1.2-1.7-2.2v-0.2c0-1.7,1-2.6,3.2-2.6
			C301.8,362.9,302.4,363,303.2,363.1z"/>
		<path class="st3" d="M636.4,4.6v2c-0.9-0.2-2-0.3-2.6-0.3c-1.1,0-1.5,0.5-1.5,1.3V8c0,0.6,0.2,0.9,1.1,1.2l1.6,0.5
			c1.7,0.6,2.3,1.4,2.3,3.2v0.3c0,2.2-1.1,3.3-4.1,3.3c-0.6,0-1.7-0.2-2.8-0.4v-2c1,0.2,2.1,0.4,2.7,0.4c1.5,0,2-0.5,2-1.3v-0.5
			c0-0.6-0.3-1-1-1.2l-1.7-0.6c-1.7-0.6-2.3-1.3-2.3-3.2l0,0c0-2.1,1.1-3.3,3.7-3.3C634.4,4.3,635.5,4.5,636.4,4.6z"/>
		<path class="st3" d="M644.9,10.7v2h-4.3v0.7c0,1,0.4,1.3,1.5,1.3c0.7,0,1.7-0.1,2.4-0.3l0.1,1.8c-0.9,0.2-2,0.3-2.6,0.3
			c-2.5,0-3.4-1-3.4-3.4v-2.5c0-2.1,1-3.3,3.2-3.3C643.7,7.3,644.9,8.5,644.9,10.7z M640.6,10.4v0.7h2.2v-0.7c0-0.9-0.4-1.3-1.1-1.3
			S640.6,9.6,640.6,10.4z"/>
		<path class="st3" d="M651.6,7.6v1.9c-0.6-0.1-1.2-0.2-1.7-0.2c-1.1,0-1.5,0.5-1.5,1.6v2.3c0,1.1,0.5,1.5,1.5,1.5
			c0.5,0,1-0.1,1.7-0.2l0.1,1.9c-1,0.2-1.5,0.2-2,0.2c-2.3,0-3.3-1.2-3.3-3.4v-2.5c0-2.2,1.1-3.4,3.4-3.4
			C650.2,7.3,650.7,7.4,651.6,7.6z"/>
		<path class="st3" d="M657.8,7.4v2.3c-0.2,0-0.4,0-0.6,0c-0.8,0-1.5,0.4-1.9,1.2v5.6h-2.1V7.6h1.9v1.3c0.6-0.9,1.4-1.5,2.3-1.5
			C657.6,7.3,657.7,7.4,657.8,7.4z"/>
		<path class="st3" d="M665.2,10.7v2h-4.3v0.7c0,1,0.4,1.3,1.5,1.3c0.7,0,1.7-0.1,2.4-0.3l0.1,1.8c-0.9,0.2-2,0.3-2.6,0.3
			c-2.5,0-3.4-1-3.4-3.4v-2.5c0-2.1,1-3.3,3.2-3.3C664.1,7.3,665.2,8.5,665.2,10.7z M660.9,10.4v0.7h2.2v-0.7c0-0.9-0.4-1.3-1.1-1.3
			S660.9,9.6,660.9,10.4z"/>
		<path class="st3" d="M669.2,7.6h2.2v1.8h-2.2v4.2c0,0.8,0.3,1.1,1,1.1c0.4,0,1.1-0.1,1.5-0.2l0.1,1.8c-0.3,0.1-1.1,0.2-1.7,0.2
			c-2,0-2.9-0.8-2.9-3V9.4H666V7.6h1.2l0.3-2.3h1.8L669.2,7.6L669.2,7.6z"/>
		<path class="st3" d="M643.7,712.7v4.3c0,2.5-1.2,4-4.1,4c-2.8,0-4.1-1.5-4.1-4v-4.3c0-2.5,1.2-4,4.1-4
			C642.4,708.7,643.7,710.2,643.7,712.7z M637.7,712.5v4.6c0,1.2,0.6,1.9,1.9,1.9c1.3,0,1.9-0.6,1.9-1.9v-4.6c0-1.2-0.6-1.9-1.9-1.9
			C638.3,710.7,637.7,711.3,637.7,712.5z"/>
		<path class="st3" d="M651.4,714.9v5.9h-2v-1.2c-0.6,0.9-1.4,1.4-2.2,1.4c-1.4,0-2.2-1-2.2-2.8v-0.5c0-1.6,1-2.6,2.8-2.6
			c0.4,0,1,0.1,1.5,0.2v-0.7c0-0.8-0.3-1-1.2-1c-0.6,0-1.6,0.2-2.4,0.3V712c0.9-0.2,2-0.3,2.6-0.3
			C650.5,711.7,651.4,712.5,651.4,714.9z M647.1,717.8v0.1c0,0.7,0.3,1.1,0.8,1.1s1-0.4,1.4-1.2v-1.2c-0.4-0.1-0.8-0.1-1-0.1
			C647.5,716.7,647.1,717.1,647.1,717.8z"/>
		<path class="st3" d="M655.6,711.9h2.2v1.8h-2.2v4.2c0,0.8,0.3,1.1,1,1.1c0.4,0,1.1-0.1,1.5-0.2l0.1,1.8c-0.3,0.1-1.1,0.2-1.7,0.2
			c-2,0-2.9-0.8-2.9-3v-4.1h-1.1v-1.8h1.2l0.3-2.3h1.8v2.3H655.6z"/>
		<path class="st3" d="M661.4,712.9c0.6-0.8,1.3-1.2,2.1-1.2c1.4,0,2.2,1,2.2,3.1v5.9h-2.1V715c0-1-0.3-1.3-0.8-1.3s-1,0.4-1.4,1.1
			v6h-2.1v-12.3h2.1V712.9L661.4,712.9z"/>
		<path class="st3" d="M391.4,116.9v0.4c0,2.3-1.4,3.7-4.1,3.7c-0.4,0-0.8,0-1.4-0.1v4.6h-2.2v-11.9c0.9,0,2.1-0.1,3.3-0.1
			C390,113.5,391.4,114.8,391.4,116.9z M385.9,115.4v3.6c0.6,0.1,0.9,0.1,1.2,0.1c1.4,0,2.1-0.6,2.1-1.8V117c0-1-0.6-1.6-2.2-1.6
			C386.5,115.4,386.2,115.4,385.9,115.4z"/>
		<path class="st3" d="M398.5,119.6v5.9h-2v-1.2c-0.6,0.9-1.4,1.4-2.2,1.4c-1.4,0-2.2-1-2.2-2.8v-0.5c0-1.6,1-2.6,2.8-2.6
			c0.4,0,1,0.1,1.5,0.2v-0.7c0-0.8-0.3-1-1.2-1c-0.6,0-1.6,0.2-2.4,0.3v-1.8c0.9-0.2,2-0.3,2.6-0.3
			C397.7,116.5,398.5,117.3,398.5,119.6z M394.3,122.6L394.3,122.6c0,0.8,0.3,1.2,0.8,1.2s1-0.4,1.4-1.2v-1.2
			c-0.4-0.1-0.8-0.1-1-0.1C394.7,121.4,394.3,121.8,394.3,122.6z"/>
		<path class="st3" d="M405.1,116.7v1.8c-0.8-0.2-1.4-0.3-1.9-0.3c-0.9,0-1.2,0.3-1.2,0.7v0.1c0,0.3,0.1,0.4,0.5,0.6l1.7,0.7
			c1.1,0.5,1.6,1.2,1.6,2.2v0.4c0,1.7-0.9,2.6-3.2,2.6c-0.7,0-1.5-0.1-2.5-0.4l0.1-1.9c0.8,0.2,1.7,0.4,2.4,0.4
			c0.9,0,1.1-0.2,1.1-0.7v0.1c0-0.4-0.1-0.6-0.5-0.8l-1.6-0.7c-1.2-0.5-1.7-1.2-1.7-2.2v-0.2c0-1.7,1-2.6,3.2-2.6
			C403.7,116.5,404.3,116.6,405.1,116.7z"/>
		<path class="st3" d="M411.9,116.7v1.8c-0.8-0.2-1.4-0.3-1.9-0.3c-0.9,0-1.2,0.3-1.2,0.7v0.1c0,0.3,0.1,0.4,0.5,0.6l1.7,0.7
			c1.1,0.5,1.6,1.2,1.6,2.2v0.4c0,1.7-0.9,2.6-3.2,2.6c-0.7,0-1.5-0.1-2.5-0.4l0.1-1.9c0.8,0.2,1.7,0.4,2.4,0.4
			c0.9,0,1.1-0.2,1.1-0.7v0.1c0-0.4-0.1-0.6-0.5-0.8l-1.6-0.7c-1.2-0.5-1.7-1.2-1.7-2.2v-0.2c0-1.7,1-2.6,3.2-2.6
			C410.5,116.5,411,116.6,411.9,116.7z"/>
		<path class="st3" d="M422.8,125.5h-2.4l-1.5-6.8l-1.5,6.8H415l-2-8.8h2.2l1.1,6.8l1.3-6.8h2.4l1.3,6.8l1.1-6.8h2.2L422.8,125.5z"
			/>
		<path class="st3" d="M432.4,119.8v2.6c0,2.1-1,3.3-3.3,3.3c-2.2,0-3.3-1.2-3.3-3.3v-2.6c0-2.1,1.1-3.3,3.3-3.3
			C431.3,116.5,432.4,117.7,432.4,119.8z M427.9,119.7v2.8c0,0.9,0.4,1.4,1.2,1.4c0.7,0,1.2-0.5,1.2-1.4v-2.8c0-0.9-0.4-1.4-1.2-1.4
			C428.3,118.3,427.9,118.8,427.9,119.7z"/>
		<path class="st3" d="M438.7,116.5v2.3c-0.2,0-0.4,0-0.6,0c-0.8,0-1.5,0.4-1.9,1.2v5.6h-2.1v-8.8h1.9v1.3c0.6-0.9,1.4-1.5,2.3-1.5
			C438.5,116.5,438.6,116.5,438.7,116.5z"/>
		<path class="st3" d="M446.1,125.5h-2v-1.3c-0.6,0.9-1.4,1.5-2.3,1.5c-1.4,0-2.3-0.9-2.3-3v-3.1c0-2,0.9-3.1,2.4-3.1
			c0.7,0,1.5,0.4,1.9,0.8v-4.1h2.1v12.3H446.1z M441.8,119.8v2.7c0,1,0.3,1.3,0.8,1.3s1-0.4,1.5-1.2V119c-0.4-0.4-0.9-0.6-1.3-0.6
			C442.2,118.4,441.8,118.8,441.8,119.8z"/>
		<path class="st3" d="M393.8,598.2v0.2c0,1-0.5,2-1.4,2.4c1,0.4,1.7,1.4,1.7,2.5v0.2c0,1.8-1.2,3.2-3.4,3.2c-0.6,0-1.6-0.1-2.5-0.2
			v-1.8c0.8,0.1,1.7,0.2,2.3,0.2c1,0,1.5-0.5,1.5-1.4v-0.2c0-1-0.5-1.5-1.5-1.5h-1.8V600h1.7c0.9,0,1.3-0.4,1.3-1.4v-0.3
			c0-0.8-0.5-1.2-1.3-1.2c-0.6,0-1.5,0.1-2.3,0.3v-1.8c0.9-0.1,1.9-0.3,2.4-0.3C392.6,595.3,393.8,596.4,393.8,598.2z"/>
		<path class="st3" d="M400.1,597.4v2.3c-0.2,0-0.4,0-0.6,0c-0.8,0-1.5,0.4-1.9,1.2v5.6h-2.1v-8.8h1.9v1.3c0.6-0.9,1.4-1.5,2.3-1.5
			C399.9,597.4,400,597.4,400.1,597.4z"/>
		<path class="st3" d="M407.6,606.4h-2v-1.3c-0.6,0.9-1.4,1.5-2.3,1.5c-1.4,0-2.3-0.9-2.3-3v-3.1c0-2,0.9-3.1,2.4-3.1
			c0.7,0,1.5,0.4,1.9,0.8v-4.1h2.1v12.3H407.6z M403.2,600.7v2.7c0,1,0.3,1.3,0.8,1.3s1-0.4,1.5-1.2v-3.6c-0.4-0.4-0.9-0.6-1.3-0.6
			C403.6,599.3,403.2,599.7,403.2,600.7z"/>
		<path class="st3" d="M420.2,597.8v0.4c0,2.3-1.4,3.7-4.1,3.7c-0.4,0-0.8,0-1.4-0.1v4.6h-2.2v-11.9c0.9,0,2.1-0.1,3.3-0.1
			C418.9,594.4,420.2,595.7,420.2,597.8z M414.8,596.3v3.6c0.6,0.1,0.9,0.1,1.2,0.1c1.4,0,2.1-0.6,2.1-1.8v-0.3c0-1-0.6-1.6-2.2-1.6
			C415.4,596.2,415.1,596.3,414.8,596.3z"/>
		<path class="st3" d="M427.3,600.5v5.9h-2v-1.2c-0.6,0.9-1.4,1.4-2.2,1.4c-1.4,0-2.2-1-2.2-2.8v-0.5c0-1.6,1-2.6,2.8-2.6
			c0.4,0,1,0.1,1.5,0.2v-0.7c0-0.8-0.3-1-1.2-1c-0.6,0-1.6,0.2-2.4,0.3v-1.8c0.9-0.2,2-0.3,2.6-0.3
			C426.5,597.4,427.3,598.2,427.3,600.5z M423.1,603.5L423.1,603.5c0,0.8,0.3,1.2,0.8,1.2s1-0.4,1.4-1.2v-1.2
			c-0.4-0.1-0.8-0.1-1-0.1C423.5,602.3,423.1,602.7,423.1,603.5z"/>
		<path class="st3" d="M433.8,597.4v2.3c-0.2,0-0.4,0-0.6,0c-0.8,0-1.5,0.4-1.9,1.2v5.6h-2.1v-8.8h1.9v1.3c0.6-0.9,1.4-1.5,2.3-1.5
			C433.6,597.4,433.7,597.4,433.8,597.4z"/>
		<path class="st3" d="M437.9,597.6h2.2v1.8h-2.2v4.2c0,0.8,0.3,1.1,1,1.1c0.4,0,1.1-0.1,1.5-0.2l0.1,1.8c-0.3,0.1-1.1,0.2-1.7,0.2
			c-2,0-2.9-0.8-2.9-3v-4.1h-1.1v-1.8h1.2l0.3-2.3h1.8v2.3H437.9z"/>
		<path class="st3" d="M445,609.7h-2.1l1.1-3.3h-0.8l-2.3-8.8h2.3l1.5,7.2l1.9-7.2h2.2L445,609.7z"/>
		<path class="st3" d="M412.3,619.3v0.4c0,1.3-0.7,2.4-2,3l2.9,5.3h-2.4l-2.6-4.8c-0.3,0-0.9,0-1.4,0v4.8h-2.2v-11.9
			c1,0,2.4-0.1,3.3-0.1C411.1,616,412.3,617.3,412.3,619.3z M406.9,617.9v3.4c0.5,0.1,0.8,0.1,1.2,0.1c1.5,0,2.1-0.6,2.1-1.7v-0.3
			c0-1-0.6-1.5-2.1-1.5C407.8,617.9,407.3,617.9,406.9,617.9z"/>
		<path class="st3" d="M420.1,622.1v5.9h-2v-1.2c-0.6,0.9-1.4,1.4-2.2,1.4c-1.4,0-2.2-1-2.2-2.8V625c0-1.6,1-2.6,2.8-2.6
			c0.4,0,1,0.1,1.5,0.2v-0.7c0-0.8-0.3-1-1.2-1c-0.6,0-1.6,0.2-2.4,0.3v-1.8c0.9-0.2,2-0.3,2.6-0.3
			C419.2,619,420.1,619.8,420.1,622.1z M415.8,625.1v0.1c0,0.7,0.3,1.1,0.8,1.1s1-0.4,1.4-1.2V624c-0.4-0.1-0.8-0.1-1-0.1
			C416.2,623.9,415.8,624.3,415.8,625.1z"/>
		<path class="st3" d="M428.2,628h-2v-1.3c-0.6,0.9-1.4,1.5-2.3,1.5c-1.4,0-2.3-0.9-2.3-3v-3.1c0-2,0.9-3.1,2.4-3.1
			c0.7,0,1.5,0.4,1.9,0.8v-4.1h2.1V628H428.2z M423.8,622.3v2.7c0,1,0.3,1.3,0.8,1.3s1-0.4,1.5-1.2v-3.6c-0.4-0.4-0.9-0.6-1.3-0.6
			C424.2,620.9,423.8,621.3,423.8,622.3z"/>
		<path class="st3" d="M432.4,616.3v0.5c0,0.7-0.5,1.1-1.3,1.1c-0.8,0-1.2-0.4-1.2-1.1v-0.5c0-0.7,0.5-1.1,1.2-1.1
			C431.9,615.3,432.4,615.6,432.4,616.3z M432.2,628h-2.1v-8.8h2.1V628z"/>
		<path class="st3" d="M440.4,628h-1.9v-1.2c-0.6,1-1.4,1.4-2.2,1.4c-1.3,0-2.2-0.9-2.2-3.1v-5.9h2.1v5.7c0,1,0.3,1.4,0.8,1.4
			s1-0.4,1.4-1.1v-6h2.1v8.8H440.4z"/>
		<path class="st3" d="M447.1,619.2v1.8c-0.8-0.2-1.4-0.3-1.9-0.3c-0.9,0-1.2,0.3-1.2,0.7v0.1c0,0.3,0.1,0.4,0.5,0.6l1.7,0.7
			c1.1,0.5,1.6,1.2,1.6,2.2v0.4c0,1.7-0.9,2.6-3.2,2.6c-0.7,0-1.5-0.1-2.5-0.4l0.1-1.9c0.8,0.2,1.7,0.4,2.4,0.4
			c0.9,0,1.1-0.2,1.1-0.7v-0.1c0-0.4-0.1-0.6-0.5-0.8l-1.6-0.7c-1.2-0.5-1.7-1.2-1.7-2.2v-0.2c0-1.7,1-2.6,3.2-2.6
			C445.8,619,446.3,619,447.1,619.2z"/>
		<path class="st3" d="M865.1,117.3l-1.9,6.9h-2.3l-1.9-6.9l-0.1,8.2h-2.1l0.1-11.8h2.8l2.3,8.4l2.3-8.4h2.8l0.1,11.8h-2
			L865.1,117.3z"/>
		<path class="st3" d="M875.5,119.8v2.6c0,2.1-1,3.3-3.3,3.3c-2.2,0-3.3-1.2-3.3-3.3v-2.6c0-2.1,1.1-3.3,3.3-3.3
			C874.5,116.5,875.5,117.7,875.5,119.8z M871,119.7v2.8c0,0.9,0.4,1.4,1.2,1.4c0.7,0,1.2-0.5,1.2-1.4v-2.8c0-0.9-0.4-1.4-1.2-1.4
			C871.5,118.3,871,118.8,871,119.7z"/>
		<path class="st3" d="M879.2,117.7c0.5-0.7,1.3-1.2,2.1-1.2c1.4,0,2.2,0.9,2.2,3.1v2.7c0,2.2-1,3.4-3.3,3.4c-2.2,0-3.2-1.1-3.2-3.4
			v-9.1h2.1v4.5H879.2z M879.2,119.5v3.1c0,0.9,0.4,1.3,1.1,1.3c0.8,0,1.2-0.5,1.2-1.4v-2.7c0-1.1-0.3-1.4-0.8-1.4
			S879.6,118.8,879.2,119.5z"/>
		<path class="st3" d="M887.7,113.9v0.5c0,0.7-0.5,1.1-1.3,1.1c-0.8,0-1.2-0.4-1.2-1.1v-0.5c0-0.7,0.5-1.1,1.2-1.1
			C887.2,112.8,887.7,113.2,887.7,113.9z M887.4,125.5h-2.1v-8.8h2.1V125.5z"/>
		<path class="st3" d="M891.4,125.5h-2.1v-12.3h2.1V125.5z"/>
		<path class="st3" d="M899.6,119.8v2h-4.3v0.7c0,1,0.4,1.3,1.5,1.3c0.7,0,1.7-0.1,2.4-0.3l0.1,1.8c-0.9,0.2-2,0.3-2.6,0.3
			c-2.5,0-3.4-1-3.4-3.4v-2.5c0-2.1,1-3.3,3.2-3.3C898.4,116.5,899.6,117.7,899.6,119.8z M895.2,119.5v0.7h2.2v-0.7
			c0-0.9-0.4-1.3-1.1-1.3C895.7,118.3,895.2,118.7,895.2,119.5z"/>
		<path class="st3" d="M859.5,605.6h-4.4v2.8h3.3v2h-3.3v5h-2.2v-11.8h6.6V605.6z"/>
		<path class="st3" d="M863.2,615.4H861v-11.8h2.2V615.4z"/>
		<path class="st3" d="M873.2,608.2v2.8c0,2.9-1.5,4.6-4.7,4.6c-1.2,0-2.2,0-3.3-0.1v-12c0.9,0,2.2-0.1,3.5-0.1
			C871.6,603.4,873.2,605.1,873.2,608.2z M867.3,605.3v8.3c0.5,0.1,0.9,0.1,1.2,0.1c1.5,0,2.5-0.9,2.5-2.6v-3c0-1.9-0.9-2.8-2.5-2.8
			C868.1,605.3,867.7,605.3,867.3,605.3z"/>
		<path class="st3" d="M883.1,607.4v4.3c0,2.5-1.2,4-4.1,4c-2.8,0-4.1-1.5-4.1-4v-4.3c0-2.5,1.2-4,4.1-4
			C881.8,603.4,883.1,604.8,883.1,607.4z M877.1,607.2v4.6c0,1.2,0.6,1.9,1.9,1.9s1.9-0.6,1.9-1.9v-4.6c0-1.2-0.6-1.9-1.9-1.9
			S877.1,606,877.1,607.2z"/>
		<path class="st3" d="M896,611.6c0,2.5-1.3,4-4,4s-4-1.4-4-4v-8h2.2v8.2c0,1.2,0.6,1.9,1.8,1.9s1.8-0.6,1.8-1.9v-8.2h2.2V611.6z"/>
		<path class="st3" d="M903.4,607.4v0.4c0,1.1-0.3,2-1.5,3.4l-2.1,2.4h3.7v1.8h-6.3v-1.5l3.5-4.3c0.6-0.7,0.7-1.1,0.7-1.8v-0.3
			c0-0.9-0.5-1.3-1.6-1.3c-0.7,0-1.6,0.2-2.3,0.4v-1.9c0.9-0.2,1.8-0.4,2.4-0.4C902.2,604.3,903.4,605.4,903.4,607.4z"/>
		<path class="st3" d="M911.6,605.6h-4.4v2.8h3.3v2h-3.3v5H905v-11.8h6.6V605.6z"/>
		<path class="st3" d="M969.4,218.6v2c-0.9-0.2-2-0.3-2.6-0.3c-1.1,0-1.5,0.5-1.5,1.3v0.4c0,0.6,0.2,0.9,1.1,1.2l1.6,0.5
			c1.7,0.6,2.3,1.4,2.3,3.2v0.3c0,2.2-1.1,3.3-4.1,3.3c-0.6,0-1.7-0.2-2.8-0.4v-2c1,0.2,2.1,0.4,2.7,0.4c1.5,0,2-0.5,2-1.3v-0.5
			c0-0.6-0.3-1-1-1.2l-1.7-0.6c-1.7-0.6-2.3-1.3-2.3-3.2v-0.2c0-2.1,1.1-3.3,3.7-3.3C967.4,218.3,968.4,218.4,969.4,218.6z"/>
		<path class="st3" d="M979.8,222.1L978,229h-2.3l-1.9-6.9l-0.1,8.2h-2.1l0.1-11.8h2.8l2.3,8.4l2.3-8.4h2.8l0.1,11.8h-2L979.8,222.1
			z"/>
		<path class="st3" d="M989.9,218.6v2c-0.9-0.2-2-0.3-2.6-0.3c-1.1,0-1.5,0.5-1.5,1.3v0.4c0,0.6,0.2,0.9,1.1,1.2l1.6,0.5
			c1.7,0.6,2.3,1.4,2.3,3.2v0.3c0,2.2-1.1,3.3-4.1,3.3c-0.6,0-1.7-0.2-2.8-0.4v-2c1,0.2,2.1,0.4,2.7,0.4c1.5,0,2-0.5,2-1.3v-0.5
			c0-0.6-0.3-1-1-1.2l-1.7-0.6c-1.7-0.6-2.3-1.3-2.3-3.2v-0.2c0-2.1,1.1-3.3,3.7-3.3C987.9,218.3,988.9,218.4,989.9,218.6z"/>
		<path class="st3" d="M966,506.9h-4.4v2.8h3.3v2h-3.3v5h-2.2v-11.8h6.6V506.9z"/>
		<path class="st3" d="M969.7,516.7h-2.2v-11.8h2.2V516.7z"/>
		<path class="st3" d="M979.7,509.4v2.8c0,2.9-1.5,4.6-4.7,4.6c-1.2,0-2.3,0-3.3-0.1v-12c0.9,0,2.2-0.1,3.5-0.1
			C978.1,504.7,979.7,506.4,979.7,509.4z M973.8,506.6v8.3c0.5,0.1,0.9,0.1,1.2,0.1c1.5,0,2.5-0.9,2.5-2.6v-3c0-1.9-0.9-2.8-2.5-2.8
			C974.6,506.6,974.2,506.6,973.8,506.6z"/>
		<path class="st3" d="M989.6,508.6v4.3c0,2.5-1.2,4-4.1,4c-2.8,0-4.1-1.5-4.1-4v-4.3c0-2.5,1.2-4,4.1-4S989.6,506.1,989.6,508.6z
			 M983.6,508.5v4.6c0,1.2,0.6,1.9,1.9,1.9s1.9-0.6,1.9-1.9v-4.6c0-1.2-0.6-1.9-1.9-1.9S983.6,507.3,983.6,508.5z"/>
		<path class="st3" d="M996.9,508.6v0.4c0,1.1-0.3,2-1.5,3.4l-2.1,2.4h3.7v1.8h-6.3v-1.5l3.5-4.3c0.6-0.7,0.7-1.1,0.7-1.8v-0.3
			c0-0.9-0.5-1.3-1.6-1.3c-0.7,0-1.6,0.2-2.3,0.4V506c0.9-0.2,1.8-0.4,2.4-0.4C995.7,505.6,996.9,506.7,996.9,508.6z"/>
		<path class="st3" d="M304.6,212.1v2.8c0,2.9-1.5,4.6-4.7,4.6c-1.2,0-2.3,0-3.3-0.1v-12c0.9,0,2.2-0.1,3.5-0.1
			C303,207.3,304.6,209,304.6,212.1z M298.8,209.2v8.3c0.5,0.1,0.9,0.1,1.2,0.1c1.5,0,2.5-0.9,2.5-2.6v-3c0-1.9-0.9-2.8-2.5-2.8
			C299.6,209.2,299.2,209.2,298.8,209.2z"/>
		<path class="st3" d="M312.7,213.6v2h-4.3v0.7c0,1,0.4,1.3,1.5,1.3c0.7,0,1.7-0.1,2.4-0.3l0.1,1.8c-0.9,0.2-2,0.3-2.6,0.3
			c-2.5,0-3.4-1-3.4-3.4v-2.5c0-2.1,1-3.3,3.2-3.3C311.5,210.3,312.7,211.5,312.7,213.6z M308.3,213.3v0.7h2.2v-0.7
			c0-0.9-0.4-1.3-1.1-1.3C308.8,212.1,308.3,212.5,308.3,213.3z"/>
		<path class="st3" d="M318.8,210.3v2.3c-0.2,0-0.4,0-0.6,0c-0.8,0-1.5,0.4-1.9,1.2v5.6h-2.1v-8.8h1.9v1.3c0.6-0.9,1.4-1.5,2.3-1.5
			C318.6,210.3,318.7,210.3,318.8,210.3z"/>
		<path class="st3" d="M322.4,207.7v0.5c0,0.7-0.5,1.1-1.3,1.1c-0.8,0-1.2-0.4-1.2-1.1v-0.5c0-0.7,0.5-1.1,1.2-1.1
			C321.9,206.6,322.4,207,322.4,207.7z M322.1,219.3H320v-8.8h2.1V219.3z"/>
		<path class="st3" d="M328.3,219.3h-2.5l-2.6-8.8h2.2l1.7,7.2l1.7-7.2h2.2L328.3,219.3z"/>
		<path class="st3" d="M338.1,213.6v2h-4.3v0.7c0,1,0.4,1.3,1.5,1.3c0.7,0,1.7-0.1,2.4-0.3l0.1,1.8c-0.9,0.2-2,0.3-2.6,0.3
			c-2.5,0-3.4-1-3.4-3.4v-2.5c0-2.1,1-3.3,3.2-3.3C337,210.3,338.1,211.5,338.1,213.6z M333.8,213.3v0.7h2.2v-0.7
			c0-0.9-0.4-1.3-1.1-1.3C334.2,212.1,333.8,212.5,333.8,213.3z"/>
		<path class="st3" d="M346,219.3h-2V218c-0.6,0.9-1.4,1.5-2.3,1.5c-1.4,0-2.3-0.9-2.3-3v-3.1c0-2,0.9-3.1,2.4-3.1
			c0.7,0,1.5,0.4,1.9,0.8V207h2.1v12.3H346z M341.6,213.6v2.7c0,1,0.3,1.3,0.8,1.3s1-0.4,1.5-1.2v-3.6c-0.4-0.4-0.9-0.6-1.3-0.6
			C342,212.2,341.6,212.6,341.6,213.6z"/>
		<path class="st3" d="M279.6,226.6v1.9c-0.7-0.1-1.6-0.3-2.4-0.3c-1.5,0-2,0.5-2,1.9v4.4c0,1.4,0.5,1.9,2,1.9
			c0.8,0,1.7-0.2,2.4-0.3v2c-0.9,0.2-1.9,0.3-2.7,0.3c-3,0-4-1.3-4-3.8v-4.7c0-2.5,1.1-3.8,4-3.8
			C277.7,226.3,278.6,226.4,279.6,226.6z"/>
		<path class="st3" d="M285.8,229.3v2.3c-0.2,0-0.4,0-0.6,0c-0.8,0-1.5,0.4-1.9,1.2v5.6h-2.1v-8.8h1.9v1.3c0.6-0.9,1.4-1.5,2.3-1.5
			C285.6,229.3,285.7,229.3,285.8,229.3z"/>
		<path class="st3" d="M293.2,232.6v2h-4.3v0.7c0,1,0.4,1.3,1.5,1.3c0.7,0,1.7-0.1,2.4-0.3l0.1,1.8c-0.9,0.2-2,0.3-2.6,0.3
			c-2.5,0-3.4-1-3.4-3.4v-2.5c0-2.1,1-3.3,3.2-3.3C292,229.3,293.2,230.5,293.2,232.6z M288.8,232.3v0.7h2.2v-0.7
			c0-0.9-0.4-1.3-1.1-1.3C289.3,231.1,288.8,231.5,288.8,232.3z"/>
		<path class="st3" d="M301,238.3h-2V237c-0.6,0.9-1.4,1.5-2.3,1.5c-1.4,0-2.3-0.9-2.3-3v-3.1c0-2,0.9-3.1,2.4-3.1
			c0.7,0,1.5,0.4,1.9,0.8V226h2.1v12.3H301z M296.6,232.6v2.7c0,1,0.3,1.3,0.8,1.3s1-0.4,1.5-1.2v-3.6c-0.4-0.4-0.9-0.6-1.3-0.6
			C297,231.2,296.6,231.6,296.6,232.6z"/>
		<path class="st3" d="M309.1,232.6v2h-4.3v0.7c0,1,0.4,1.3,1.5,1.3c0.7,0,1.7-0.1,2.4-0.3l0.1,1.8c-0.9,0.2-2,0.3-2.6,0.3
			c-2.5,0-3.4-1-3.4-3.4v-2.5c0-2.1,1-3.3,3.2-3.3C308,229.3,309.1,230.5,309.1,232.6z M304.8,232.3v0.7h2.2v-0.7
			c0-0.9-0.4-1.3-1.1-1.3C305.3,231.1,304.8,231.5,304.8,232.3z"/>
		<path class="st3" d="M317.2,232.4v5.9H315v-5.7c0-1-0.3-1.3-0.8-1.3s-1,0.4-1.4,1.1v6h-2.1v-8.8h1.9v1.2c0.6-1,1.4-1.4,2.3-1.4
			C316.3,229.3,317.2,230.3,317.2,232.4z"/>
		<path class="st3" d="M321.5,229.5h2.2v1.8h-2.2v4.2c0,0.8,0.3,1.1,1,1.1c0.4,0,1.1-0.1,1.5-0.2l0.1,1.8c-0.3,0.1-1.1,0.2-1.7,0.2
			c-2,0-2.9-0.8-2.9-3v-4.1h-1.1v-1.8h1.2l0.3-2.3h1.8v2.3H321.5z"/>
		<path class="st3" d="M327.5,226.7v0.5c0,0.7-0.5,1.1-1.3,1.1c-0.8,0-1.2-0.4-1.2-1.1v-0.5c0-0.7,0.4-1.1,1.2-1.1
			C327.1,225.6,327.5,226,327.5,226.7z M327.3,238.3h-2.1v-8.8h2.1V238.3z"/>
		<path class="st3" d="M335.2,232.4v5.9h-2v-1.2c-0.6,0.9-1.4,1.4-2.2,1.4c-1.4,0-2.2-1-2.2-2.8v-0.5c0-1.6,1-2.6,2.8-2.6
			c0.4,0,1,0.1,1.5,0.2v-0.7c0-0.8-0.3-1-1.2-1c-0.6,0-1.6,0.2-2.4,0.3v-1.8c0.9-0.2,2-0.3,2.6-0.3
			C334.3,229.3,335.2,230.1,335.2,232.4z M330.9,235.4v0.1c0,0.7,0.3,1.1,0.8,1.1s1-0.4,1.4-1.2v-1.2c-0.4-0.1-0.8-0.1-1-0.1
			C331.3,234.2,330.9,234.6,330.9,235.4z"/>
		<path class="st3" d="M339.1,238.3H337V226h2.1V238.3z"/>
		<path class="st3" d="M345.8,229.5v1.8c-0.8-0.2-1.4-0.3-1.9-0.3c-0.9,0-1.2,0.3-1.2,0.7v0.1c0,0.3,0.1,0.4,0.5,0.6l1.7,0.7
			c1.1,0.5,1.6,1.2,1.6,2.2v0.4c0,1.7-0.9,2.6-3.2,2.6c-0.7,0-1.5-0.1-2.5-0.4l0.1-1.9c0.8,0.2,1.7,0.4,2.4,0.4
			c0.9,0,1.1-0.2,1.1-0.7v-0.1c0-0.4-0.1-0.6-0.5-0.8l-1.6-0.7c-1.2-0.5-1.7-1.2-1.7-2.2v-0.2c0-1.7,1-2.6,3.2-2.6
			C344.4,229.3,344.9,229.4,345.8,229.5z"/>
		<path class="st3" d="M318.8,506.9h-4.4v2.8h4.1v2h-4.1v3h4.4v2h-6.6v-11.8h6.6V506.9z"/>
		<path class="st3" d="M331.3,510.7v5.9h-2.1v-5.7c0-1-0.3-1.3-0.8-1.3s-1,0.4-1.4,1.1v6h-2.1V511c0-1-0.3-1.3-0.8-1.3
			s-1,0.4-1.4,1.1v6h-2.1V508h1.9v1.2c0.6-1,1.4-1.4,2.2-1.4c1,0,1.7,0.5,2,1.5c0.6-1,1.4-1.5,2.3-1.5
			C330.4,507.7,331.3,508.6,331.3,510.7z"/>
		<path class="st3" d="M339.1,510.8v5.9h-2v-1.2c-0.6,0.9-1.4,1.4-2.2,1.4c-1.4,0-2.2-1-2.2-2.8v-0.5c0-1.6,1-2.6,2.8-2.6
			c0.4,0,1,0.1,1.5,0.2v-0.7c0-0.8-0.3-1-1.2-1c-0.6,0-1.6,0.2-2.4,0.3V508c0.9-0.2,2-0.3,2.6-0.3
			C338.3,507.7,339.1,508.5,339.1,510.8z M334.9,513.8v0.1c0,0.7,0.3,1.1,0.8,1.1s1-0.4,1.4-1.2v-1.2c-0.4-0.1-0.8-0.1-1-0.1
			C335.3,512.6,334.9,513,334.9,513.8z"/>
		<path class="st3" d="M343.3,505v0.5c0,0.7-0.5,1.1-1.3,1.1s-1.2-0.4-1.2-1.1V505c0-0.7,0.4-1.1,1.2-1.1
			C342.8,504,343.3,504.3,343.3,505z M343,516.7h-2.1v-8.8h2.1V516.7z"/>
		<path class="st3" d="M347,516.7h-2.1v-12.3h2.1V516.7z"/>
		<path class="st3" d="M1003.5,363.3v0.4c0,2.3-1.3,3.7-4.1,3.7c-0.4,0-0.8,0-1.4-0.1v4.6h-2.2V360c0.9,0,2.1-0.1,3.3-0.1
			C1002.2,359.9,1003.5,361.2,1003.5,363.3z M998.1,361.8v3.6c0.6,0.1,0.9,0.1,1.2,0.1c1.4,0,2.1-0.6,2.1-1.8v-0.3
			c0-1-0.6-1.6-2.2-1.6C998.6,361.8,998.4,361.8,998.1,361.8z"/>
		<path class="st3" d="M1006.9,364.1c0.6-0.8,1.3-1.2,2.1-1.2c1.4,0,2.3,1,2.3,3.1v5.9h-2.1v-5.7c0-1-0.3-1.3-0.8-1.3
			s-1,0.4-1.4,1.1v6h-2.1v-12.3h2.1L1006.9,364.1L1006.9,364.1z"/>
		<path class="st3" d="M1019.5,366.2v2.6c0,2.1-1,3.3-3.3,3.3c-2.2,0-3.3-1.2-3.3-3.3v-2.6c0-2.1,1.1-3.3,3.3-3.3
			C1018.5,362.9,1019.5,364.1,1019.5,366.2z M1015,366.1v2.8c0,0.9,0.4,1.4,1.2,1.4c0.7,0,1.2-0.5,1.2-1.4v-2.8
			c0-0.9-0.5-1.4-1.2-1.4S1015,365.2,1015,366.1z"/>
		<path class="st3" d="M1027.7,366v5.9h-2.1v-5.7c0-1-0.3-1.3-0.8-1.3s-1,0.4-1.4,1.1v6h-2.1v-8.8h1.9v1.2c0.6-1,1.4-1.4,2.3-1.4
			C1026.9,362.9,1027.7,363.9,1027.7,366z"/>
		<path class="st3" d="M1035.8,366.2v2h-4.3v0.7c0,1,0.4,1.3,1.5,1.3c0.7,0,1.7-0.1,2.4-0.3l0.1,1.8c-0.9,0.2-2,0.3-2.6,0.3
			c-2.5,0-3.4-1-3.4-3.4v-2.5c0-2.1,1-3.3,3.2-3.3C1034.7,362.9,1035.8,364,1035.8,366.2z M1031.5,365.9v0.7h2.2V366
			c0-0.9-0.4-1.3-1.1-1.3C1031.9,364.7,1031.5,365.1,1031.5,365.9z"/>
		<path class="st3" d="M1047.1,360.2v1.9c-0.7-0.1-1.6-0.3-2.4-0.3c-1.5,0-2,0.5-2,1.9v4.4c0,1.4,0.5,1.9,2,1.9
			c0.8,0,1.7-0.2,2.4-0.3v2c-0.9,0.2-1.9,0.3-2.7,0.3c-3,0-4-1.3-4-3.8v-4.7c0-2.5,1.1-3.8,4-3.8
			C1045.2,359.9,1046.1,360,1047.1,360.2z"/>
		<path class="st3" d="M1054.5,366v5.9h-2v-1.2c-0.6,0.9-1.4,1.4-2.2,1.4c-1.3,0-2.2-1-2.2-2.8v-0.5c0-1.6,1-2.6,2.8-2.6
			c0.4,0,1,0.1,1.5,0.2v-0.7c0-0.8-0.3-1-1.2-1c-0.6,0-1.6,0.2-2.4,0.3v-1.8c0.9-0.2,2-0.3,2.6-0.3
			C1053.6,362.9,1054.5,363.7,1054.5,366z M1050.3,369v0.1c0,0.7,0.3,1.1,0.8,1.1s1-0.4,1.4-1.2v-1.2c-0.4-0.1-0.8-0.1-1-0.1
			C1050.6,367.8,1050.3,368.2,1050.3,369z"/>
		<path class="st3" d="M1058.4,371.9h-2.1v-12.3h2.1V371.9z"/>
		<path class="st3" d="M1062.4,371.9h-2.1v-12.3h2.1V371.9z"/>
		<path class="st4" d="M652.6,127.3c26,0,47-21,47-47c0-26-21-47-47-47c-26,0-47,21-47,47C605.6,106.3,626.6,127.3,652.6,127.3z"/>
		<path class="st5" d="M674.1,89.3c0,9.1-8.8,16.9-21.5,20.4c-12.7-3.5-21.5-11.3-21.5-20.4V62.1c14.3-9.4,28.7-9.4,43,0V89.3z"/>
		<path class="st6" d="M641.9,76.4c0-1.5,0.3-2.7,0.9-3.8c0.6-1,1.4-1.9,2.5-2.6c1-0.7,2.2-1.2,3.5-1.5s2.6-0.5,4-0.5
			c1.3,0,2.7,0.1,4,0.4c1.3,0.3,2.4,0.7,3.4,1.4c1,0.6,1.8,1.5,2.4,2.5c0.6,1.1,0.9,2.3,0.9,3.9c0,1.4-0.3,2.6-0.8,3.5
			c-0.5,0.9-1.1,1.6-1.8,2.1c-0.7,0.5-1.5,0.9-2.2,1.2c-0.8,0.3-1.4,0.6-2,0.9c-0.5,0.2-1,0.5-1.3,0.7c-0.3,0.2-0.6,0.5-0.8,0.9
			c-0.2,0.3-0.3,0.8-0.4,1.3c-0.1,0.5-0.1,1.1-0.2,1.9h-4.1c0-1.3,0.2-2.4,0.4-3.2c0.2-0.9,0.6-1.6,1-2.2c0.4-0.6,1-1.1,1.6-1.5
			c0.6-0.4,1.3-0.7,2.1-1c0.5-0.2,1-0.4,1.5-0.7c0.5-0.3,1-0.5,1.4-0.8c0.4-0.3,0.8-0.7,1.1-1.2s0.4-1.1,0.4-1.9
			c0-1-0.2-1.8-0.6-2.3c-0.4-0.6-1-1-1.6-1.3c-0.7-0.3-1.4-0.5-2.2-0.6s-1.5-0.2-2.3-0.2c-0.7,0-1.5,0.1-2.2,0.3
			c-0.8,0.2-1.5,0.5-2.1,0.8c-0.6,0.4-1.2,0.9-1.6,1.4c-0.4,0.6-0.6,1.3-0.6,2.1H641.9z M651.9,96.2c-0.7,0-1.3-0.2-1.8-0.7
			c-0.5-0.4-0.8-1.1-0.8-2s0.3-1.5,0.8-2c0.5-0.4,1.2-0.7,1.8-0.7c0.7,0,1.3,0.2,1.8,0.7c0.6,0.4,0.8,1.1,0.8,2s-0.3,1.5-0.8,2
			C653.2,95.9,652.6,96.2,651.9,96.2z"/>
		<path class="st4" d="M652.6,692.7c26,0,47-21,47-47c0-26-21-47-47-47c-26,0-47,21-47,47C605.6,671.7,626.6,692.7,652.6,692.7z"/>
		<path class="st4" d="M511.3,165.2c26,0,47-21,47-47c0-26-21-47-47-47c-26,0-47,21-47,47C464.3,144.2,485.3,165.2,511.3,165.2z"/>
		<path class="st4" d="M793.9,654.8c26,0,47-21,47-47c0-26-21-47-47-47c-26,0-47,21-47,47C746.9,633.8,767.9,654.8,793.9,654.8z"/>
		<path class="st4" d="M407.8,268.7c26,0,47-21,47-47s-21-47-47-47s-47,21-47,47S381.8,268.7,407.8,268.7z"/>
		<path class="st4" d="M897.4,551.4c26,0,47-21,47-47s-21-47-47-47c-26,0-47,21-47,47S871.4,551.4,897.4,551.4z"/>
		<path class="st4" d="M369.9,410c26,0,47-21,47-47s-21-47-47-47s-47,21-47,47S343.9,410,369.9,410z"/>
		<path class="st4" d="M935.3,410c26,0,47-21,47-47s-21-47-47-47c-26,0-47,21-47,47S909.3,410,935.3,410z"/>
		<path class="st4" d="M407.8,551.4c26,0,47-21,47-47s-21-47-47-47s-47,21-47,47S381.8,551.4,407.8,551.4z"/>
		<path class="st4" d="M897.4,268.7c26,0,47-21,47-47s-21-47-47-47c-26,0-47,21-47,47S871.4,268.7,897.4,268.7z"/>
		<path class="st4" d="M511.3,654.8c26,0,47-21,47-47c0-26-21-47-47-47c-26,0-47,21-47,47C464.3,633.8,485.3,654.8,511.3,654.8z"/>
		<path class="st4" d="M793.9,165.2c26,0,47-21,47-47c0-26-21-47-47-47c-26,0-47,21-47,47C746.9,144.2,767.9,165.2,793.9,165.2z"/>
		<path class="st4" d="M652.6,692.7c26,0,47-21,47-47c0-26-21-47-47-47c-26,0-47,21-47,47C605.6,671.7,626.6,692.7,652.6,692.7z"/>
		<path class="st4" d="M652.6,127.3c26,0,47-21,47-47c0-26-21-47-47-47c-26,0-47,21-47,47C605.6,106.3,626.6,127.3,652.6,127.3z"/>
		<path class="st7" d="M889.7,527.2c2.4-1.5,4.4-3.7,5.4-6.4c1.3-3.4,1.1-7.4-0.6-10.7c-0.9-1.7-2.1-3.3-2.1-5.2
			c0-2.2,1.7-4.1,3.7-4.6c2.7-0.7,5.7,0.9,7.2,3.3s1.8,5.5,1.3,8.4c-0.5,2.9-1.6,5.6-2.7,8.2c-1.2,2.9-2.5,5.8-3.7,8.6"/>
		<path class="st7" d="M885.6,522.7c0.8-1.1,1.6-2.2,2.1-3.5c0.8-1.7,1.2-3.7,0.8-5.6c-0.4-2.2-1.9-4.2-2.8-6.2
			c-2.1-5,0.6-10.4,5.3-12.5c5.3-2.4,13.3-1.5,17.2,3.3c3.4,4.1,3.1,10.3,2.3,15.3c-0.9,5.6-3.2,11-6.5,15.5"/>
		<path class="st7" d="M914.2,520.8c1.4-3.9,2.3-8.1,2.6-12.1c0.4-5.1-0.1-11.3-3.3-15.4c-4.6-6-12.4-7.5-19.4-6.1
			c-4.2,0.8-8.6,2.9-11.7,5.9c-3.2,3.1-5.2,7.3-4.5,12.4c0.3,2.2,1.1,4.2,1.8,6.3c0.7,2.1,1.3,4.2,1.2,6.4"/>
		<path class="st7" d="M917,487.9c-5.6-7.3-15-9.1-23.5-7.4c-5,1-10.2,3.4-14.1,7.1"/>
		<path class="st8" d="M534.6,596c0,0.6-0.5,1.1-1.1,1.1l-44.5-0.3c-0.6,0-1.1-0.5-1.1-1.1l0.1-10.3c0-0.6,0.5-1.1,1.1-1.1l44.5,0.3
			c0.6,0,1.1,0.5,1.1,1.1L534.6,596z"/>
		<path class="st9" d="M534.6,596c0,0.6-0.5,1.1-1.1,1.1l-44.5-0.3c-0.6,0-1.1-0.5-1.1-1.1l0.1-10.3c0-0.6,0.5-1.1,1.1-1.1l44.5,0.3
			c0.6,0,1.1,0.5,1.1,1.1L534.6,596z"/>
		<path class="st10" d="M494.7,592.5c1,0,1.9-0.9,1.9-1.9c0-1-0.9-1.9-1.9-1.9c-1,0-1.9,0.9-1.9,1.9
			C492.8,591.6,493.7,592.5,494.7,592.5z"/>
		<path class="st8" d="M534.6,612.8c0,0.6-0.5,1.1-1.1,1.1l-44.5-0.3c-0.6,0-1.1-0.5-1.1-1.1l0.1-10.3c0-0.6,0.5-1.1,1.1-1.1
			l44.5,0.3c0.6,0,1.1,0.5,1.1,1.1L534.6,612.8z"/>
		<path class="st9" d="M534.6,612.8c0,0.6-0.5,1.1-1.1,1.1l-44.5-0.3c-0.6,0-1.1-0.5-1.1-1.1l0.1-10.3c0-0.6,0.5-1.1,1.1-1.1
			l44.5,0.3c0.6,0,1.1,0.5,1.1,1.1L534.6,612.8z"/>
		<path class="st10" d="M494.7,609.3c1,0,1.9-0.9,1.9-1.9c0-1-0.9-1.9-1.9-1.9c-1,0-1.9,0.9-1.9,1.9
			C492.8,608.4,493.7,609.3,494.7,609.3z"/>
		<path class="st8" d="M534.6,630.2c0,0.6-0.5,1.1-1.1,1.1L489,631c-0.6,0-1.1-0.5-1.1-1.1l0.1-10.3c0-0.6,0.5-1.1,1.1-1.1l44.5,0.3
			c0.6,0,1.1,0.5,1.1,1.1L534.6,630.2z"/>
		<path class="st9" d="M534.6,630.2c0,0.6-0.5,1.1-1.1,1.1L489,631c-0.6,0-1.1-0.5-1.1-1.1l0.1-10.3c0-0.6,0.5-1.1,1.1-1.1l44.5,0.3
			c0.6,0,1.1,0.5,1.1,1.1L534.6,630.2z"/>
		<path class="st10" d="M494.7,626.8c1,0,1.9-0.9,1.9-1.9c0-1-0.9-1.9-1.9-1.9c-1,0-1.9,0.9-1.9,1.9
			C492.8,625.9,493.7,626.8,494.7,626.8z"/>
		<path class="st11" d="M932.3,338.4h5.9"/>
		<path class="st11" d="M937.3,385.7c0,1.1-0.9,2-2,2c-1.1,0-2-0.9-2-2c0-1.1,0.9-2,2-2C936.4,383.7,937.3,384.6,937.3,385.7z"/>
		<path class="st11" d="M951.1,379.8h-31.6"/>
		<path class="st11" d="M919.5,342.3h31.6"/>
		<path class="st12" d="M951.1,367.4v21.2c0,2.2-1.8,3.9-3.9,3.9h-23.7c-2.2,0-3.9-1.8-3.9-3.9v-51.3c0-2.2,1.8-3.9,3.9-3.9h23.7
			c2.2,0,3.9,1.8,3.9,3.9v18.3V367.4z"/>
		<path class="st13" d="M805.9,120.9h-24.2v14.7h24.2V120.9z"/>
		<path class="st13" d="M805.9,103.4h-24.2v14.7h24.2V103.4z"/>
		<path class="st11" d="M790.8,95.8h5.9"/>
		<path class="st11" d="M795.8,144.2c0,1.1-0.9,2-2,2c-1.1,0-2-0.9-2-2c0-1.1,0.9-2,2-2C794.9,142.2,795.8,143.1,795.8,144.2z"/>
		<path class="st11" d="M809.6,139.2H778"/>
		<path class="st11" d="M778,99.8h31.6"/>
		<path class="st12" d="M809.6,124.9v21.2c0,2.2-1.8,3.9-3.9,3.9H782c-2.2,0-3.9-1.8-3.9-3.9V94.8c0-2.2,1.8-3.9,3.9-3.9h23.7
			c2.2,0,3.9,1.8,3.9,3.9v18.3V124.9z"/>
		<path class="st14" d="M800,107.2l-6.6,6.6l-3-2.8"/>
		<path class="st14" d="M790.4,124.7l6.8,6.8"/>
		<path class="st14" d="M790.4,131.5l6.8-6.8"/>
		<path class="st6" d="M431.2,495.1L411,480.7c-1-0.7-2.1-1-3.3-1c-1.2,0-2.3,0.4-3.3,1l-20.2,14.4c-0.3,0.2-0.5,0.5-0.5,0.9v29.1
			c0,1.4,1.2,2.6,2.6,2.6h42.6c1.4,0,2.6-1.2,2.6-2.6V496C431.7,495.7,431.5,495.3,431.2,495.1z M402.2,511.9l-16,12.9V498
			L402.2,511.9z M425,499.9L412.2,511l-1.2-0.9c-1.9-1.5-4.7-1.5-6.5,0l-1.2,0.9l-4.7-4.1h15.9c0.2,0,0.4-0.2,0.4-0.4
			s-0.2-0.4-0.4-0.4h-16.8l-2.6-2.2h23.1c0.2,0,0.4-0.2,0.4-0.4s-0.2-0.4-0.4-0.4h-23.9l-3.7-3.2v-3.1H425V499.9z M405.5,511.2
			c1.4-1.1,3.3-1.1,4.7,0l17.9,14.3h-40.4L405.5,511.2z M413.4,511.9l16-13.9v26.8L413.4,511.9z M405.8,482.5c0.6-0.4,1.2-0.6,2-0.6
			c0.7,0,1.4,0.2,2,0.6l19.3,13.8l-2.6,2.3V496c0-0.4-0.3-0.7-0.7-0.7H390c-0.4,0-0.7,0.3-0.7,0.7v2.6l-2.6-2.3L405.8,482.5z"/>
		<path class="st6" d="M393.6,500.9h14.2c0.2,0,0.4-0.2,0.4-0.4s-0.2-0.4-0.4-0.4h-14.2c-0.2,0-0.4,0.2-0.4,0.4
			S393.4,500.9,393.6,500.9z"/>
		<path class="st6" d="M918.4,204.3h-41.9c-2.9,0-5.3,2.4-5.3,5.3v25.5c0,2.9,2.4,5.3,5.3,5.3H891l5.5,8.5c0.2,0.4,0.6,0.6,1,0.6
			s0.8-0.2,1-0.6l5.5-8.5h14.5c2.9,0,5.3-2.4,5.3-5.3v-25.5C923.7,206.7,921.3,204.3,918.4,204.3z M921.2,235.1
			c0,1.6-1.3,2.9-2.9,2.9h-15.1c-0.4,0-0.8,0.2-1,0.6l-4.8,7.4l-4.8-7.4c-0.2-0.4-0.6-0.6-1-0.6h-15.1c-1.6,0-2.9-1.3-2.9-2.9v-25.5
			c0-1.6,1.3-2.9,2.9-2.9h41.9c1.6,0,2.9,1.3,2.9,2.9L921.2,235.1L921.2,235.1z"/>
		<path class="st6" d="M888.1,222.5c-0.4-0.3-0.9-0.5-1.4-0.7c-0.6-0.2-1.2-0.4-1.9-0.5c-0.6-0.1-1-0.2-1.2-0.3
			c-0.2-0.1-0.5-0.2-0.7-0.3c-0.2-0.1-0.4-0.3-0.6-0.5c-0.1-0.2-0.2-0.4-0.2-0.6c0-0.4,0.2-0.7,0.6-1c0.4-0.3,0.9-0.4,1.6-0.4
			s1.2,0.1,1.5,0.4c0.3,0.3,0.6,0.6,0.8,1.1c0.2,0.3,0.3,0.6,0.5,0.7c0.1,0.1,0.4,0.2,0.7,0.2s0.6-0.1,0.8-0.4
			c0.2-0.2,0.3-0.5,0.3-0.8c0-0.3-0.1-0.7-0.3-1c-0.2-0.3-0.4-0.7-0.8-1c-0.4-0.3-0.8-0.6-1.4-0.8c-0.6-0.2-1.2-0.3-2-0.3
			c-0.9,0-1.8,0.1-2.5,0.4c-0.7,0.3-1.2,0.7-1.6,1.2c-0.4,0.5-0.6,1.1-0.6,1.8s0.2,1.3,0.5,1.8c0.4,0.5,0.8,0.9,1.4,1.1
			c0.6,0.3,1.3,0.5,2.2,0.7c0.7,0.2,1.2,0.3,1.6,0.4c0.4,0.1,0.7,0.3,1,0.6c0.2,0.3,0.4,0.6,0.4,1c0,0.5-0.2,0.9-0.7,1.3
			c-0.5,0.3-1.1,0.5-1.8,0.5c-0.5,0-1-0.1-1.3-0.3s-0.6-0.4-0.8-0.7c-0.2-0.3-0.4-0.6-0.5-1c-0.1-0.3-0.3-0.6-0.5-0.8
			s-0.4-0.3-0.7-0.3s-0.6,0.1-0.8,0.3s-0.3,0.5-0.3,0.8c0,0.5,0.2,1.1,0.5,1.6c0.4,0.6,0.8,1,1.4,1.3c0.8,0.5,1.8,0.7,3,0.7
			c1,0,1.9-0.2,2.6-0.5c0.7-0.3,1.3-0.8,1.7-1.4c0.4-0.6,0.6-1.3,0.6-2c0-0.6-0.1-1.1-0.3-1.6C888.8,223.1,888.5,222.8,888.1,222.5z
			"/>
		<path class="st6" d="M902.9,216.8c-0.3-0.2-0.7-0.3-1.1-0.3H901c-0.5,0-0.8,0-1,0.1c-0.2,0.1-0.4,0.2-0.5,0.5
			c-0.1,0.2-0.2,0.6-0.3,1.1l-1.8,6.8l-1.8-6.8c-0.1-0.5-0.2-0.9-0.3-1.1c-0.1-0.2-0.3-0.4-0.5-0.5c-0.2-0.1-0.5-0.1-1-0.1H893
			c-0.5,0-0.9,0.1-1.1,0.3c-0.3,0.2-0.4,0.6-0.4,1.1v9.8c0,0.5,0.1,0.8,0.3,1.1c0.2,0.2,0.5,0.3,0.8,0.3c0.3,0,0.6-0.1,0.8-0.4
			c0.2-0.2,0.3-0.6,0.3-1.1v-8.5l2,7.9c0.1,0.3,0.1,0.5,0.2,0.7c0.1,0.2,0.2,0.5,0.3,0.7c0.1,0.2,0.3,0.4,0.5,0.5
			c0.2,0.1,0.4,0.2,0.7,0.2c0.4,0,0.7-0.1,0.9-0.3s0.4-0.4,0.5-0.7c0.1-0.2,0.2-0.6,0.3-1.1l2-7.9v8.5c0,0.5,0.1,0.8,0.3,1.1
			c0.2,0.2,0.5,0.4,0.8,0.4c0.4,0,0.6-0.1,0.8-0.4c0.2-0.2,0.3-0.6,0.3-1.1v-9.8C903.3,217.3,903.2,216.9,902.9,216.8z"/>
		<path class="st6" d="M914,222.5c-0.4-0.3-0.9-0.5-1.4-0.7c-0.6-0.2-1.2-0.4-1.9-0.5c-0.6-0.1-1-0.2-1.2-0.3s-0.5-0.2-0.7-0.3
			c-0.2-0.1-0.4-0.3-0.6-0.5c-0.1-0.2-0.2-0.4-0.2-0.6c0-0.4,0.2-0.7,0.6-1c0.4-0.3,0.9-0.4,1.6-0.4s1.2,0.1,1.5,0.4
			c0.3,0.3,0.6,0.6,0.8,1.1c0.2,0.3,0.3,0.6,0.5,0.7c0.1,0.1,0.4,0.2,0.7,0.2s0.6-0.1,0.8-0.4c0.2-0.2,0.3-0.5,0.3-0.8
			c0-0.3-0.1-0.7-0.3-1c-0.2-0.3-0.4-0.7-0.8-1c-0.4-0.3-0.8-0.6-1.4-0.8c-0.6-0.2-1.2-0.3-2-0.3c-0.9,0-1.8,0.1-2.5,0.4
			s-1.2,0.7-1.6,1.2c-0.4,0.5-0.6,1.1-0.6,1.8s0.2,1.3,0.5,1.8c0.4,0.5,0.8,0.9,1.4,1.1c0.6,0.3,1.3,0.5,2.2,0.7
			c0.7,0.2,1.2,0.3,1.6,0.4c0.4,0.1,0.7,0.3,1,0.6s0.4,0.6,0.4,1c0,0.5-0.2,0.9-0.7,1.3c-0.5,0.3-1.1,0.5-1.8,0.5
			c-0.5,0-1-0.1-1.3-0.3c-0.3-0.2-0.6-0.4-0.8-0.7c-0.2-0.3-0.4-0.6-0.5-1c-0.1-0.3-0.3-0.6-0.5-0.8c-0.2-0.2-0.4-0.3-0.7-0.3
			c-0.3,0-0.6,0.1-0.8,0.3c-0.2,0.2-0.3,0.5-0.3,0.8c0,0.5,0.2,1.1,0.5,1.6c0.4,0.6,0.8,1,1.4,1.3c0.8,0.5,1.8,0.7,3,0.7
			c1,0,1.9-0.2,2.6-0.5s1.3-0.8,1.7-1.4c0.4-0.6,0.6-1.3,0.6-2c0-0.6-0.1-1.1-0.3-1.6C914.7,223.1,914.4,222.8,914,222.5z"/>
		<path class="st15" d="M363.6,379.7v8.2c0,1.6-1.3,2.9-2.9,2.9h-8.5c-1.6,0-2.9-1.3-2.9-2.9v-48.3c0-1.6,1.3-2.9,2.9-2.9h8.5
			c1.6,0,2.9,1.3,2.9,2.9v46.1V379.7z"/>
		<path class="st16" d="M368,363.2v8.2c0,1.6-1.3,2.9-2.9,2.9h-17.3c-1.6,0-2.9-1.3-2.9-2.9v-15.5c0-1.6,1.3-2.9,2.9-2.9h17.3
			c1.6,0,2.9,1.3,2.9,2.9v13.3V363.2z"/>
		<path class="st17" d="M364.7,367.8v2.7c0,0.5-0.4,1-1,1H349c-0.5,0-1-0.4-1-1v-5.1c0-0.5,0.4-1,1-1h14.7c0.5,0,1,0.4,1,1v4.4
			V367.8z"/>
		<path class="st17" d="M364.7,359.2v2.7c0,0.5-0.4,1-1,1H349c-0.5,0-1-0.4-1-1v-5.1c0-0.5,0.4-1,1-1h14.7c0.5,0,1,0.4,1,1v4.4
			V359.2z"/>
		<path class="st8" d="M368.4,370.6c5.9,0,10.6-0.9,10.6-2.1s-4.7-2.1-10.6-2.1s-10.6,0.9-10.6,2.1S362.5,370.6,368.4,370.6z"/>
		<path class="st6" d="M399.6,350.9h-0.1c-0.1,0-3.3-0.7-5.9,0.4c-0.1,0-0.3,0-0.7-0.3c-0.2-0.1-4-2.4-9.7-2.4
			c-0.3,0-7.7,0.2-9.7,4.4c-0.3,0.7-0.5,1.4-0.5,2.1c0,0.1,0,0.3,0.1,0.6c-0.4,0.3-0.8,0.7-1,1.3c-0.3,0.6-0.5,1.6-0.1,2.7
			c-0.4,0.3-0.7,0.7-1,1.2c-0.2,0.5-0.3,1-0.4,1.5c0,0.2,0,0.8,0.3,1.6l-9.6,0.2c-0.9,0-2.7,0.5-3.5,2.1c-0.2,0.5-0.4,1.1-0.4,1.7
			v0.1c0.1,1.3,0.9,3.8,3.8,3.8l14.6,0.4c-0.7,0.8-1.7,2-2.4,3.4c-0.8,1.6-0.8,3-0.1,4v0.1c0.4,0.5,1.4,1.2,3.1,0.7
			c0.8-0.2,1.7-0.8,2.8-1.6c0.4-0.3,0.8-0.6,1.3-0.9c0.6-0.4,1.6-0.8,1.9-0.8c0.1,0,2.4,0.1,4.5-0.9h0.1c0.2-0.1,5.1-2.7,7.6-5.4
			c0.1-0.1,0.5-0.3,0.8-0.3l4.6,0.1c0.2,0,2,0,3.3-2.6c0.7-1.5,1.1-3.5,1.1-6C404.4,361.3,404.9,352.6,399.6,350.9z M402.1,362
			c0,2.3-0.3,4.1-0.9,5.2c-0.6,1.3-1.3,1.4-1.3,1.4l-4.6-0.1c-1.2,0-2.1,0.7-2.2,0.8l-0.1,0.1c-2.1,2.3-6.7,4.8-7.1,5
			c-1.6,0.7-3.5,0.7-3.5,0.7c-1.2,0-2.8,1-3.1,1.2c-0.5,0.3-0.9,0.6-1.3,0.9c-0.8,0.5-1.6,1.2-2,1.2h-0.1c-0.5,0.1-0.7,0.1-0.8,0
			c-0.2-0.5,0.1-1.3,0.3-1.8c0.8-1.6,2.3-3.2,2.5-3.5c0.7-0.5,1-0.9,1.2-1.3c0.2-0.4,0.2-0.9-0.1-1.3s-0.8-0.5-1.3-0.4l-16.4-0.4
			c-1.4,0-1.6-1.4-1.7-1.7c0-0.3,0.1-0.5,0.2-0.7c0.4-0.8,1.6-0.9,1.6-0.9l10.4-0.2c0.9,0,1.5-0.3,1.8-0.8c0.3-0.7,0-1.3-0.4-1.8
			c-0.4-0.4-0.4-1-0.4-1v-0.1c0-0.2,0-0.4,0.1-0.6c0.3-0.5,0.8-0.7,0.8-0.7l1.3-0.4l-0.7-1.2c-0.6-0.9-0.4-1.4-0.3-1.6
			c0.2-0.4,0.7-0.8,0.8-0.8l1-0.5l-0.5-1c-0.1-0.3-0.1-0.6-0.1-0.6c0-0.5,0.1-0.9,0.3-1.2c1.2-2.5,6-3.1,7.7-3.2
			c4.8,0.1,8.3,2,8.5,2.1c1.3,0.9,2.3,0.6,2.5,0.5h0.1c1.9-0.8,4.3-0.4,4.7-0.4C402.1,354,402.3,359.8,402.1,362z"/>
		<path class="st18" d="M546.4,130.1H476c-1.2,0-2.2-0.9-2.2-2.1v-15.5c0-1.2,1-2.1,2.2-2.1h70.4c1.2,0,2.2,0.9,2.2,2.1V128
			C548.7,129.2,547.7,130.1,546.4,130.1z"/>
		<path class="st6" d="M483.6,122.5l-0.9-1.3l-0.9,1.3l-1-0.7l1-1.2l-1.4-0.3l0.4-1.2l1.4,0.5L482,118h1.3l-0.1,1.5l1.5-0.5l0.4,1.2
			l-1.5,0.3l1.1,1.2L483.6,122.5z"/>
		<path class="st6" d="M490.1,122.5l-0.9-1.3l-0.9,1.3l-1-0.7l1-1.2l-1.4-0.3l0.4-1.2l1.4,0.5l-0.1-1.5h1.3l-0.1,1.5l1.5-0.5
			l0.4,1.2l-1.5,0.3l1.1,1.2L490.1,122.5z"/>
		<path class="st6" d="M496.6,122.5l-0.9-1.3l-0.9,1.3l-1-0.7l1-1.2l-1.4-0.3l0.4-1.2l1.4,0.5l-0.1-1.5h1.3l-0.1,1.5l1.5-0.5
			l0.4,1.2l-1.5,0.3l1.1,1.2L496.6,122.5z"/>
		<path class="st6" d="M503.1,122.5l-0.9-1.3l-0.9,1.3l-1-0.7l1-1.2l-1.4-0.3l0.4-1.2l1.4,0.5l-0.1-1.5h1.3l-0.1,1.5l1.5-0.5
			l0.4,1.2l-1.5,0.3l1.1,1.2L503.1,122.5z"/>
		<path class="st6" d="M509.7,122.5l-0.9-1.3l-0.9,1.3l-1-0.7l1-1.2l-1.4-0.3l0.4-1.2l1.4,0.5l-0.1-1.5h1.3l-0.1,1.5l1.5-0.5
			l0.4,1.2l-1.5,0.3l1.1,1.2L509.7,122.5z"/>
		<path class="st6" d="M516.2,122.5l-0.9-1.3l-0.9,1.3l-1-0.7l1-1.2l-1.4-0.3l0.4-1.2l1.4,0.5l-0.1-1.5h1.3l-0.1,1.5l1.5-0.5
			l0.4,1.2l-1.5,0.3l1.1,1.2L516.2,122.5z"/>
		<path class="st6" d="M522.7,122.5l-0.9-1.3l-0.9,1.3l-1-0.7l1-1.2l-1.4-0.3l0.4-1.2l1.4,0.5l-0.1-1.5h1.3l-0.1,1.5l1.5-0.5
			l0.4,1.2l-1.5,0.3l1.1,1.2L522.7,122.5z"/>
		<path class="st6" d="M529.2,122.5l-0.9-1.3l-0.9,1.3l-1-0.7l1-1.2l-1.4-0.3l0.4-1.2l1.4,0.5l-0.1-1.5h1.3l-0.1,1.5l1.5-0.5
			l0.4,1.2l-1.5,0.3l1.1,1.2L529.2,122.5z"/>
		<path class="st19" d="M539.8,124.3h-4.3c-0.4,0-0.7-0.3-0.7-0.7v-2.9c0-0.4,0.3-0.7,0.7-0.7h4.3c0.4,0,0.7,0.3,0.7,0.7v2.9
			C540.5,124,540.2,124.3,539.8,124.3z"/>
		<path class="st19" d="M535.5,120.1V118c0-1.2,1-2.1,2.1-2.1c1.2,0,2.1,1,2.1,2.1v2.1"/>
		<path class="st20" d="M787.8,621.6l-18.1,7.6c-0.9,0.4-1.9,0-2.3-0.9l-4-9.6c-0.4-0.9,0-2,0.9-2.3l18.1-7.6c0.9-0.4,1.9,0,2.3,0.9
			l4,9.6C789.1,620.1,788.7,621.2,787.8,621.6z"/>
		<path class="st20" d="M827.9,608.4l-43.4,18.3c-0.9,0.4-1.9,0-2.3-0.9l-7-16.5c-0.4-0.9,0-2,0.9-2.3l43.4-18.3
			c0.9-0.4,1.9,0,2.3,0.9l7,16.5C829.3,606.9,828.9,608,827.9,608.4z"/>
		<path class="st21" d="M800.7,614c3.2,0,5.8-2.6,5.8-5.8s-2.6-5.8-5.8-5.8s-5.8,2.6-5.8,5.8S797.5,614,800.7,614z"/>
		<path class="st22" d="M817.8,603.3c1.3,0,2.3-1,2.3-2.3s-1-2.3-2.3-2.3c-1.3,0-2.3,1-2.3,2.3S816.5,603.3,817.8,603.3z"/>
		<path class="st23" d="M771.1,623.2l5.7-2.4"/>
		<path class="st23" d="M771,621.1l5-2.1"/>
		<path class="st23" d="M770.5,625.4l7-3"/>
		<path class="st23" d="M767.6,618.4l7-2.9"/>
		<path class="st23" d="M769.6,619.5l5.7-2.4"/>
		<path class="st24" d="M685.6,638.4h-39.7c-2.8-4-7.4-6.6-12.7-6.6c-8.5,0-15.5,6.9-15.5,15.5c0,8.5,6.9,15.5,15.5,15.5
			c5.2,0,9.9-2.6,12.7-6.6h39.7c1,0,1.9-0.7,1.9-1.5v-14.8C687.5,639,686.6,638.4,685.6,638.4z"/>
		<path class="st25" d="M633.2,658.3c6.1,0,11.1-5,11.1-11.1s-5-11.1-11.1-11.1s-11.1,5-11.1,11.1S627.1,658.3,633.2,658.3z"/>
		<path class="st26" d="M676.7,651.2h-22.2c-2.1,0-3.8-1.7-3.8-3.8c0-2.1,1.7-3.8,3.8-3.8h22.2c2.1,0,3.8,1.7,3.8,3.8
			C680.5,649.5,678.8,651.2,676.7,651.2z"/>
		<path class="st27" d="M656.7,648.2c0.4,0,0.8-0.4,0.8-0.8c0-0.4-0.4-0.8-0.8-0.8s-0.8,0.4-0.8,0.8
			C655.9,647.8,656.3,648.2,656.7,648.2z"/>
		<path class="st27" d="M661.3,648.2c0.4,0,0.8-0.4,0.8-0.8c0-0.4-0.4-0.8-0.8-0.8s-0.8,0.4-0.8,0.8
			C660.5,647.8,660.9,648.2,661.3,648.2z"/>
		<path class="st27" d="M665.6,648.2c0.4,0,0.8-0.4,0.8-0.8c0-0.4-0.4-0.8-0.8-0.8c-0.4,0-0.8,0.4-0.8,0.8
			C664.8,647.8,665.2,648.2,665.6,648.2z"/>
		<path class="st27" d="M670.2,648.2c0.4,0,0.8-0.4,0.8-0.8c0-0.4-0.4-0.8-0.8-0.8s-0.8,0.4-0.8,0.8
			C669.4,647.8,669.8,648.2,670.2,648.2z"/>
		<path class="st27" d="M674.4,648.2c0.4,0,0.8-0.4,0.8-0.8c0-0.4-0.4-0.8-0.8-0.8c-0.4,0-0.8,0.4-0.8,0.8
			C673.6,647.8,674,648.2,674.4,648.2z"/>
		<path class="st1" d="M761.3,368.5h104.4"/>
		<path class="st2" d="M865.4,374.2c3.2,0,5.7-2.6,5.7-5.7c0-3.2-2.6-5.7-5.7-5.7c-3.2,0-5.7,2.6-5.7,5.7
			C859.7,371.7,862.3,374.2,865.4,374.2z"/>
		<path class="st1" d="M435.2,368.5h97.6"/>
		<path class="st2" d="M435.5,374.2c-3.2,0-5.7-2.6-5.7-5.7c0-3.2,2.6-5.7,5.7-5.7c3.2,0,5.7,2.6,5.7,5.7
			C441.2,371.7,438.7,374.2,435.5,374.2z"/>
		<path class="st1" d="M652.5,424.7v152.1"/>
		<path class="st2" d="M646.7,576.5c0,3.2,2.6,5.7,5.7,5.7c3.1,0,5.7-2.6,5.7-5.7c0-3.2-2.6-5.7-5.7-5.7
			C649.3,570.8,646.7,573.3,646.7,576.5z"/>
		<path class="st1" d="M652.5,153.3v113"/>
		<path class="st2" d="M646.7,153.6c0-3.2,2.6-5.7,5.7-5.7c3.1,0,5.7,2.6,5.7,5.7c0,3.2-2.6,5.7-5.7,5.7
			C649.3,159.3,646.7,156.7,646.7,153.6z"/>
		<path class="st1" d="M621.1,419.8l-74.8,129.5"/>
		<path class="st2" d="M541.5,546.2c-1.6,2.7-0.6,6.2,2.1,7.8c2.7,1.6,6.2,0.6,7.8-2.1c1.6-2.7,0.6-6.2-2.1-7.8
			C546.6,542.6,543.1,543.5,541.5,546.2z"/>
		<path class="st1" d="M758.6,181.7l-51.5,89.2"/>
		<path class="st2" d="M753.5,179.1c1.6-2.7,5.1-3.7,7.8-2.1s3.7,5.1,2.1,7.8c-1.6,2.7-5.1,3.7-7.8,2.1
			C752.9,185.3,751.9,181.8,753.5,179.1z"/>
		<path class="st1" d="M683.8,419.8l74.8,129.5"/>
		<path class="st2" d="M753.5,551.9c1.6,2.7,5.1,3.7,7.8,2.1s3.7-5.1,2.1-7.8c-1.6-2.7-5.1-3.7-7.8-2.1
			C752.8,545.7,751.9,549.2,753.5,551.9z"/>
		<path class="st1" d="M546.3,181.7l62.9,108.8"/>
		<path class="st2" d="M541.5,184.8c-1.6-2.7-0.6-6.2,2.1-7.8c2.7-1.6,6.2-0.6,7.8,2.1c1.6,2.7,0.6,6.2-2.1,7.8
			C546.6,188.5,543.1,187.6,541.5,184.8z"/>
		<path class="st28" d="M736.8,315.5c1-4.1,1.5-8.3,1.5-12.6c0-30-25-54.5-55.7-54.5c-20.3,0-38.8,10.8-48.6,27.9
			c-3-0.5-6.1-0.7-9.2-0.7c-25.4,0-47.8,16.5-55.2,39.8c-30.1,1.9-54,26.5-54,56.4c0,31.2,25.9,56.5,57.8,56.5h29.8h99H732
			c31.9,0,57.8-25.4,57.8-56.5C789.7,342.2,766.4,317.9,736.8,315.5z"/>
		<path class="st3" d="M587.6,371.9h-3.5l-0.7-2.9h-4.3l-0.7,2.9H575l4.4-15.1h3.8L587.6,371.9z M579.7,366.2h3.2l-1.6-6.8
			L579.7,366.2z"/>
		<path class="st3" d="M596.8,371.9h-2.9v-1.4c-0.8,1.2-1.7,1.7-2.8,1.7c-1.7,0-2.7-1.1-2.7-3.9v-7.6h3.2v7.2c0,1,0.3,1.3,0.7,1.3
			c0.4,0,0.9-0.3,1.4-1v-7.5h3.1V371.9L596.8,371.9z"/>
		<path class="st3" d="M602.4,360.7h2.6v2.8h-2.6v4.7c0,0.9,0.3,1.2,1.1,1.2c0.5,0,1.4-0.1,1.9-0.2l0.1,2.7
			c-0.4,0.1-1.6,0.3-2.3,0.3c-2.7,0-3.8-1.1-3.8-4.1v-4.6h-1.3v-2.8h1.4l0.4-3h2.7v3H602.4z"/>
		<path class="st3" d="M609.7,361.8c0.8-1,1.6-1.4,2.6-1.4c1.7,0,2.7,1.2,2.7,3.9v7.6h-3.1v-7.3c0-1-0.3-1.3-0.7-1.3
			c-0.5,0-1,0.4-1.4,1v7.5h-3.1v-15.7h3.1L609.7,361.8L609.7,361.8z"/>
		<path class="st3" d="M625,364.7v2.7h-5.2v0.6c0,1,0.4,1.4,1.7,1.4c0.9,0,2.1-0.2,3.1-0.4l0.1,2.8c-1.2,0.3-2.7,0.5-3.6,0.5
			c-3.2,0-4.5-1.3-4.5-4.6v-2.9c0-2.7,1.3-4.3,4.2-4.3C623.5,360.4,625,361.9,625,364.7z M619.8,364.3v0.8h2.2v-0.7
			c0-0.9-0.4-1.3-1.1-1.3C620.2,363.1,619.8,363.5,619.8,364.3z"/>
		<path class="st3" d="M635,364.3v7.6h-3.1v-7.3c0-1-0.3-1.3-0.7-1.3c-0.5,0-1,0.4-1.4,1v7.5h-3.1v-11.2h2.9v1.5
			c0.8-1.2,1.7-1.7,2.8-1.7C634,360.4,635,361.6,635,364.3z"/>
		<path class="st3" d="M640.7,360.7h2.6v2.8h-2.6v4.7c0,0.9,0.3,1.2,1.1,1.2c0.5,0,1.4-0.1,1.9-0.2l0.1,2.7
			c-0.4,0.1-1.6,0.3-2.3,0.3c-2.7,0-3.8-1.1-3.8-4.1v-4.6h-1.3v-2.8h1.4l0.4-3h2.7v3H640.7z"/>
		<path class="st3" d="M648.3,356.9v0.6c0,1-0.6,1.6-1.8,1.6c-1.1,0-1.8-0.6-1.8-1.6v-0.6c0-1,0.7-1.6,1.8-1.6
			S648.3,355.9,648.3,356.9z M648,371.9h-3.1v-11.2h3.1V371.9z"/>
		<path class="st3" d="M656.9,360.7v2.8c-0.8-0.1-1.6-0.3-2.1-0.3c-1.3,0-1.8,0.5-1.8,1.8v2.6c0,1.3,0.5,1.7,1.8,1.7
			c0.6,0,1.1-0.1,2.1-0.3l0.1,2.8c-1.4,0.3-2,0.3-2.7,0.3c-2.9,0-4.4-1.5-4.4-4.4v-3c0-2.9,1.4-4.4,4.4-4.4
			C654.9,360.4,655.6,360.5,656.9,360.7z"/>
		<path class="st3" d="M666.3,364.6v7.3h-2.9v-1.4c-0.7,1.1-1.6,1.6-2.6,1.6c-1.7,0-2.8-1.2-2.8-3.6V368c0-2.1,1.3-3.4,3.5-3.4
			c0.4,0,1.1,0.1,1.6,0.2v-0.6c0-0.7-0.3-1-1.4-1c-0.7,0-2,0.2-3,0.4v-2.8c1.2-0.2,2.7-0.4,3.4-0.4
			C665.2,360.4,666.3,361.4,666.3,364.6z M661.1,368.1v0.2c0,0.7,0.3,1.1,0.7,1.1c0.4,0,0.9-0.3,1.3-1.1V367c-0.3-0.1-0.7-0.1-1-0.1
			C661.5,366.9,661.1,367.3,661.1,368.1z"/>
		<path class="st3" d="M671.8,360.7h2.6v2.8h-2.6v4.7c0,0.9,0.3,1.2,1.1,1.2c0.5,0,1.4-0.1,1.9-0.2l0.1,2.7
			c-0.4,0.1-1.6,0.3-2.3,0.3c-2.7,0-3.8-1.1-3.8-4.1v-4.6h-1.3v-2.8h1.4l0.4-3h2.7v3H671.8z"/>
		<path class="st3" d="M679.3,356.9v0.6c0,1-0.6,1.6-1.8,1.6c-1.1,0-1.8-0.6-1.8-1.6v-0.6c0-1,0.7-1.6,1.8-1.6
			C678.7,355.3,679.3,355.9,679.3,356.9z M679.1,371.9H676v-11.2h3.1V371.9z"/>
		<path class="st3" d="M689.4,364.7v3.1c0,2.8-1.4,4.3-4.3,4.3c-2.9,0-4.3-1.5-4.3-4.3v-3.1c0-2.8,1.4-4.3,4.3-4.3
			C688,360.4,689.4,361.9,689.4,364.7z M684,364.6v3.4c0,0.9,0.4,1.4,1.2,1.4c0.7,0,1.2-0.5,1.2-1.4v-3.4c0-0.9-0.4-1.4-1.2-1.4
			S684,363.6,684,364.6z"/>
		<path class="st3" d="M699.6,364.3v7.6h-3.2v-7.3c0-1-0.3-1.3-0.7-1.3c-0.5,0-1,0.4-1.4,1v7.5h-3.1v-11.2h2.9v1.5
			c0.8-1.2,1.7-1.7,2.8-1.7C698.5,360.4,699.6,361.6,699.6,364.3z"/>
		<path class="st3" d="M623,382.8h-5.5v2.9h4v3h-4v6.2h-3.2v-15.1h8.7V382.8z"/>
		<path class="st3" d="M631.1,387.6v7.3h-2.9v-1.4c-0.7,1.1-1.6,1.6-2.6,1.6c-1.7,0-2.8-1.2-2.8-3.6V391c0-2.1,1.3-3.4,3.5-3.4
			c0.4,0,1.1,0.1,1.6,0.2v-0.6c0-0.7-0.3-1-1.4-1c-0.7,0-2,0.2-3,0.4v-2.8c1.2-0.2,2.7-0.4,3.4-0.4
			C630.1,383.4,631.1,384.3,631.1,387.6z M625.9,391.1v0.2c0,0.7,0.3,1.1,0.7,1.1c0.4,0,0.9-0.3,1.3-1.1V390c-0.3-0.1-0.7-0.1-1-0.1
			C626.3,389.9,625.9,390.3,625.9,391.1z"/>
		<path class="st3" d="M639.8,383.7v2.8c-0.8-0.1-1.6-0.3-2.1-0.3c-1.3,0-1.8,0.5-1.8,1.8v2.6c0,1.3,0.5,1.7,1.8,1.7
			c0.6,0,1.1-0.1,2.1-0.3l0.1,2.8c-1.4,0.3-2,0.3-2.7,0.3c-2.9,0-4.4-1.5-4.4-4.4v-3c0-2.9,1.4-4.4,4.4-4.4
			C637.8,383.4,638.5,383.5,639.8,383.7z"/>
		<path class="st3" d="M645.3,383.7h2.6v2.8h-2.6v4.7c0,0.9,0.3,1.2,1.1,1.2c0.5,0,1.4-0.1,1.9-0.2l0.1,2.7
			c-0.4,0.1-1.6,0.3-2.3,0.3c-2.7,0-3.8-1.1-3.8-4.1v-4.6H641v-2.8h1.4l0.4-3h2.7v3H645.3z"/>
		<path class="st3" d="M657.9,387.7v3.1c0,2.8-1.4,4.3-4.3,4.3c-2.9,0-4.3-1.5-4.3-4.3v-3.1c0-2.8,1.4-4.3,4.3-4.3
			C656.5,383.4,657.9,384.9,657.9,387.7z M652.5,387.6v3.4c0,0.9,0.4,1.4,1.2,1.4c0.7,0,1.2-0.5,1.2-1.4v-3.4c0-0.9-0.4-1.4-1.2-1.4
			S652.5,386.6,652.5,387.6z"/>
		<path class="st3" d="M665.9,383.4v3.3c-0.2,0-0.4,0-0.7,0c-1,0-1.8,0.4-2.4,1.4v6.8h-3.1v-11.2h2.9v1.7c0.8-1.1,1.8-1.9,2.9-1.9
			C665.6,383.4,665.7,383.4,665.9,383.4z"/>
		<path class="st3" d="M673.9,383.7v2.8c-1.1-0.2-1.9-0.4-2.5-0.4c-1,0-1.3,0.2-1.3,0.7v0.1c0,0.3,0.1,0.4,0.5,0.6l2.1,0.9
			c1.4,0.6,2.1,1.6,2.1,2.9v0.4c0,2.2-1.2,3.4-4.2,3.4c-0.9,0-2-0.2-3.3-0.5l0.1-2.9c1.2,0.3,2.3,0.5,3.1,0.5c0.9,0,1.1-0.2,1.1-0.6
			v-0.1c0-0.3-0.1-0.5-0.5-0.7l-1.9-0.8c-1.5-0.6-2.2-1.6-2.2-2.9v-0.3c0-2.3,1.2-3.5,4.1-3.5C672,383.4,672.8,383.5,673.9,383.7z"
			/>
		<path class="st29" d="M675.7,313.1c-5.8-5.7-15.2-5.7-21,0.2c-1.6,1.6-2.8,3.6-3.5,5.6L634,319l-14.6,0.1l-6.5,4.9l6.5,4.8h3.7
			l3.6-3.3l3.7,3.2l3.6-3.3l5.3,3.2h5.3h5.3h1.4c0.7,2,1.9,4,3.5,5.6c5.8,5.7,15.2,5.7,21-0.1C681.6,328.2,681.5,318.8,675.7,313.1z
			"/>
		<path class="st30" d="M668.4,326.8c-1.8,1.8-4.7,1.8-6.5,0c-1.8-1.8-1.8-4.7,0-6.5c1.8-1.8,4.7-1.8,6.5,0
			C670.2,322.1,670.2,325,668.4,326.8z"/>
		<path class="st31" d="M383,207.8v-3.6c0-4,3.2-7.2,7.2-7.2h3.6"/>
		<path class="st31" d="M433.5,207.8v-3.6c0-4-3.2-7.2-7.2-7.2h-3.6"/>
		<path class="st31" d="M433.5,236.7v3.6c0,4-3.2,7.2-7.2,7.2h-3.6"/>
		<path class="st31" d="M383,236.7v3.6c0,4,3.2,7.2,7.2,7.2h3.6"/>
		<path class="st32" d="M391.4,204.3c-0.6,0-1.1,0.5-1.1,1.1v13.1c0,0.6,0.5,1.1,1.1,1.1h13.1c0.6,0,1.1-0.5,1.1-1.1v-13.1
			c0-0.6-0.5-1.1-1.1-1.1H391.4z M411,204.3c-0.6,0-1.1,0.5-1.1,1.1v13.1c0,0.6,0.5,1.1,1.1,1.1h13.1c0.6,0,1.1-0.5,1.1-1.1v-13.1
			c0-0.6-0.5-1.1-1.1-1.1H411z M392.4,206.5h10.9v10.9h-10.9V206.5z M412.1,206.5h10.9v10.9h-10.9V206.5z M394.6,208.6v6.6h6.6v-6.6
			H394.6z M414.3,208.6v6.6h6.6v-6.6H414.3z M391.4,224c-0.6,0-1.1,0.5-1.1,1.1v13.1c0,0.6,0.5,1.1,1.1,1.1h13.1
			c0.6,0,1.1-0.5,1.1-1.1V225c0-0.6-0.5-1.1-1.1-1.1H391.4z M411,224c-0.6,0-1.1,0.5-1.1,1.1v5.5h2.2v-4.4h4.4V224H411z M419.8,224
			c-0.6,0-1.1,0.5-1.1,1.1v5.5h2.2v-4.4h4.4V224H419.8z M392.4,226.1h10.9v10.9h-10.9V226.1z M394.6,228.3v6.6h6.6v-6.6H394.6z
			 M414.3,230.5v2.2h-1.1c-0.6,0-1.1,0.5-1.1,1.1v5.5h2.2v-4.4h2.2v4.4h2.2v-5.5c0-0.6-0.5-1.1-1.1-1.1h-1.1v-2.2H414.3z
			 M423.1,230.5v8.8h2.2v-8.8H423.1z"/>
	</g>
</g>
</svg>
